<svg xmlns="http://www.w3.org/2000/svg" width="18.892" height="18.881" viewBox="0 0 18.892 18.881"><path d="M135.373,43.085a3.145,3.145,0,0,0-1.339-2.019l-1.679-1.13h0l-.7-.468a1.088,1.088,0,0,0-1.508.294l-2.224,3.3a1.086,1.086,0,0,0,.294,1.508l.648.436,1.117.752a.537.537,0,0,1,.145.745l-2.694,4a.537.537,0,0,1-.745.145l-1.765-1.188a1.087,1.087,0,0,0-1.508.294L121.777,52.2l-.582.864a1.085,1.085,0,0,0-.1.187h0c-.006.015-.012.03-.018.045l0,.005c0,.014-.009.027-.014.041l0,.01c0,.013-.007.026-.011.039l0,.013c0,.012-.006.025-.009.037l0,.014c0,.013,0,.026-.007.039l0,.013c0,.015,0,.03-.006.045v.007a1.088,1.088,0,0,0,.471,1.012l2.366,1.6a3.143,3.143,0,0,0,1.768.545,3.2,3.2,0,0,0,.609-.059,3.144,3.144,0,0,0,2.023-1.34l5.949-8.835a.277.277,0,1,0-.46-.309l-5.949,8.835a2.611,2.611,0,0,1-3.63.7l-1.441-.976,2.822-4.191.84.566a1.091,1.091,0,0,0,1.514-.3l2.694-4a1.091,1.091,0,0,0-.3-1.514l-.84-.566,2.819-4.187,1.449.976a2.611,2.611,0,0,1,.708,3.625.277.277,0,1,0,.46.309A3.144,3.144,0,0,0,135.373,43.085Zm-13.108,11.34-.465-.313h0a.532.532,0,0,1-.144-.739l2.224-3.3a.534.534,0,0,1,.739-.144l.465.313Zm6.732-10-.465-.313a.533.533,0,0,1-.144-.739l2.224-3.3a.529.529,0,0,1,.34-.225l.052-.008.052,0a.528.528,0,0,1,.295.091l.465.313Z" transform="translate(-116.541 -37.837)"/><path d="M171.384,137.216a.818.818,0,1,0-.818.818A.819.819,0,0,0,171.384,137.216Zm-1.081,0a.264.264,0,1,1,.264.264A.264.264,0,0,1,170.3,137.216Z" transform="translate(-163.479 -131.366)"/><path d="M117.523,138.033a.818.818,0,1,0-.818-.818A.819.819,0,0,0,117.523,138.033Zm0-1.081a.264.264,0,1,1-.264.264A.264.264,0,0,1,117.523,136.952Z" transform="translate(-112.394 -131.366)"/><path d="M65.3,137.216a.818.818,0,1,0-.818.818A.819.819,0,0,0,65.3,137.216Zm-1.081,0a.264.264,0,1,1,.264.264A.264.264,0,0,1,64.215,137.216Z" transform="translate(-61.31 -131.366)"/><path d="M4.7,10.562a.374.374,0,0,0,.234-.348V9.26H5.7A4.554,4.554,0,1,0,5.7.151H4.554A4.552,4.552,0,0,0,.2,6.048a.277.277,0,0,0,.529-.164A4,4,0,0,1,4.554.705H5.7a4,4,0,1,1,0,8H4.915a.54.54,0,0,0-.539.539v.532L3.174,8.55a1.1,1.1,0,0,0-.317-.225A4.06,4.06,0,0,1,1.412,7.173c-.012-.016-.116-.153-.18-.248a.277.277,0,1,0-.458.311c.076.112.195.268.2.274l0,0A4.617,4.617,0,0,0,2.62,8.826a.546.546,0,0,1,.158.112l1.508,1.54a.374.374,0,0,0,.41.085Z" transform="translate(0 -0.151)"/></svg>