<svg xmlns="http://www.w3.org/2000/svg" width="18.65" height="18.64" viewBox="0 0 18.65 18.64"><path d="M285.243,134.976a.9.9,0,1,0,.9-.9A.905.905,0,0,0,285.243,134.976Zm1.261,0a.357.357,0,1,1-.357-.357A.357.357,0,0,1,286.5,134.976Z" transform="translate(-274.853 -129.194)"/><path d="M347.966,134.976a.9.9,0,1,0,.9-.9A.905.905,0,0,0,347.966,134.976Zm1.261,0a.357.357,0,1,1-.357-.357A.357.357,0,0,1,349.227,134.976Z" transform="translate(-335.291 -129.194)"/><path d="M410.688,134.976a.9.9,0,1,0,.9-.9A.905.905,0,0,0,410.688,134.976Zm1.261,0a.357.357,0,1,1-.357-.357A.357.357,0,0,1,411.949,134.976Z" transform="translate(-395.728 -129.194)"/><path d="M14.149.142H13.014A4.5,4.5,0,0,0,9.263,2.156l-.384-.237a1.58,1.58,0,0,0-1.671,0L.132,6.3l0,0-.017.012L.1,6.315l-.018.016,0,0-.019.021,0,.006-.012.017,0,.008L.032,6.4l0,.008L.02,6.432l0,.009-.006.02,0,.008c0,.007,0,.015,0,.022V6.5H0a.268.268,0,0,0,0,.028V18.143a.64.64,0,0,0,.639.639H15.446a.64.64,0,0,0,.639-.639V8.708a4.527,4.527,0,0,0,1.2-.835A.274.274,0,0,0,16.9,7.48a3.98,3.98,0,0,1-1.062.739,1.184,1.184,0,0,0-.338.241l-1.176,1.2V9.167a.567.567,0,0,0-.566-.566h-.745a3.956,3.956,0,1,1,0-7.911h1.135A3.96,3.96,0,0,1,18.1,4.645a3.9,3.9,0,0,1-.362,1.649l-.114.227-.017.032a.274.274,0,0,0,.48.263l.02-.036,0-.009.118-.235,0-.008a4.442,4.442,0,0,0,.415-1.883,4.508,4.508,0,0,0-4.5-4.5ZM.872,18.234H.641a.091.091,0,0,1-.091-.091V7.187L5.09,11.7l-.018.026ZM13.564,9.149h.195a.018.018,0,0,1,.018.018v.9a.383.383,0,0,0,.657.268l1.1-1.126v8.937a.091.091,0,0,1-.091.091h-.231l-4.2-6.506L11,11.7Zm-.771-.005-2.134,2.122a3.537,3.537,0,0,0-3.486-1.047l-.011,0L6.9,10.3a.274.274,0,1,0,.157.525l.255-.077a2.989,2.989,0,0,1,3.241,1.277l4.009,6.209H1.524l4.009-6.209a2.986,2.986,0,0,1,.548-.633.274.274,0,1,0-.36-.413,3.526,3.526,0,0,0-.292.287L.715,6.579,7.5,2.385a1.035,1.035,0,0,1,1.095,0l.4.245a4.5,4.5,0,0,0,3.806,6.513Z" transform="translate(-0.002 -0.142)"/></svg>