<svg xmlns="http://www.w3.org/2000/svg" width="23" height="11.5" viewBox="0 0 23 11.5"><g transform="translate(0 -96.243)"><g transform="translate(0 96.243)"><path d="M.719,97.68H22.281a.719.719,0,1,0,0-1.437H.719a.719.719,0,1,0,0,1.437Z" transform="translate(0 -96.243)"/><path d="M22.281,180.455H.719a.719.719,0,0,0,0,1.437H22.281a.719.719,0,0,0,0-1.437Z" transform="translate(0 -175.424)"/><path d="M135.4,264.667H121.022a.719.719,0,1,0,0,1.437H135.4a.719.719,0,0,0,0-1.437Z" transform="translate(-113.115 -254.604)"/></g></g></svg>